<?xml version="1.0" encoding="UTF-8"?>
<!DOCTYPE svg PUBLIC "-//W3C//DTD SVG 1.1//EN" "http://www.w3.org/Graphics/SVG/1.1/DTD/svg11.dtd"><svg version="1.1" viewBox="0 0 21000 29700" preserveAspectRatio="xMidYMid" fill-rule="evenodd" xmlns="http://www.w3.org/2000/svg" xmlns:xlink="http://www.w3.org/1999/xlink"><g visibility="visible" id="Standard"><desc>Master slide</desc><g style="stroke:none;fill:none"><rect x="0" y="0" width="21000" height="29700"/></g></g><g visibility="visible" id="page1"><desc>Slide</desc><g><desc>Drawing</desc><g><g><defs><clipPath id="clip1"><path d="M 8958,16227 L 8803,16197 8650,16165 8500,16131 8351,16097 8204,16061 8060,16023 7918,15984 7779,15944 7642,15902 7508,15859 7377,15815 7248,15769 7122,15723 7000,15675 6880,15625 6764,15575 6651,15524 6541,15471 6434,15418 6331,15363 6231,15307 6135,15251 6042,15194 5953,15135 5868,15076 5786,15016 5708,14955 5634,14894 5564,14832 5498,14769 5436,14705 5378,14641 5324,14577 5274,14512 5228,14446 5186,14380 5149,14314 5115,14247 5086,14180 5061,14113 5040,14045 5024,13978 5012,13910 5004,13842 5000,13774 5001,13706 5006,13638 5015,13570 5028,13502 5046,13435 5068,13367 5094,13300 5125,13233 5159,13166 5198,13100 5241,13034 5288,12969 5339,12904 5395,12840 5454,12776 5517,12712 5585,12650 5656,12588 5731,12527 5810,12466 5893,12406 5979,12347 6069,12289 6163,12232 6260,12176 6361,12121 6465,12066 6573,12013 6684,11961 6798,11910 6915,11860 7036,11811 7159,11764 7286,11717 7415,11672 7547,11628 7682,11585 7820,11544 7960,11504 8102,11466 8247,11429 8395,11393 8544,11359 8696,11326 8849,11294 9005,11264 9162,11236 9321,11209 9482,11184 9644,11160 9808,11138 9973,11118 10139,11099 10306,11082 10475,11066 10644,11052 10814,11040 10985,11029 11157,11020 11329,11013 11501,11007 11674,11003 11847,11001 12020,11000 12193,11001 12366,11004 12539,11008 12711,11014 12883,11022 13054,11031 13225,11042 13395,11055 13564,11070 13732,11086 13900,11103 14066,11122 14230,11143 14394,11166 14556,11190 14716,11215 14875,11243 15031,11271 15187,11301 15340,11333 15491,11366 15640,11401 15786,11437 15931,11474 16073,11513 16212,11554 16349,11595 16483,11638 16615,11682 16744,11728 16869,11774 16992,11822 17112,11871 17229,11922 17342,11973 17452,12025 17559,12079 17663,12133 17763,12189 17859,12245 17952,12303 18041,12361 18127,12420 18209,12480 18287,12541 18361,12602 18431,12664 18498,12727 18560,12790 18618,12854 18673,12919 18723,12984 18769,13050 18811,13115 18849,13182 18883,13249 18912,13316 18937,13383 18958,13450 18975,13518 18988,13586 18996,13654 19000,13722 18999,13790 18995,13858 18986,13925 18973,13993 18955,14061 18933,14128 18907,14196 18877,14263 18843,14329 18804,14395 18762,14461 18715,14527 18664,14592 18609,14656 18550,14720 18487,14783 18420,14846 18349,14908 18274,14969 18195,15030 18113,15090 18027,15149 17937,15207 17843,15264 17746,15320 17646,15376 17542,15430 17434,15483 17324,15536 17210,15587 17092,15637 16972,15686 16849,15733 16723,15780 16593,15825 16461,15869 16327,15912 16189,15953 16049,15993 15907,16032 15762,16069 15615,16105 15466,16139 15314,16172 15161,16204 15006,16234 14848,16262 14689,16289 14529,16314 14367,16338 14203,16360 14038,16381 13872,16400 13705,16417 13536,16433 13367,16447 13197,16460 13026,16470 12855,16479 12683,16487 12510,16493 12337,16497 12164,16499 11991,16500 11818,16499 11645,16496 11473,16492 11300,16486 6675,21167 8958,16227 Z M 5000,11000 L 5000,11000 Z M 19001,16501 L 19001,16501 Z"/></clipPath></defs><g style="clip-path:URL(#clip1)"><g style="stroke:none;fill:rgb(255,0,0)"><path d="M 4999,10999 L 19002,10999 19002,21168 4999,21168 4999,10999 Z M -4566,13504 L 6894,2083 18307,13536 6847,24957 -4566,13504 Z"/></g><g style="stroke:none;fill:rgb(255,1,1)"><path d="M -4566,13504 L 6894,2083 18307,13536 6847,24957 -4566,13504 Z M -4521,13504 L 6894,2129 18262,13536 6847,24911 -4521,13504 Z"/></g><g style="stroke:none;fill:rgb(255,2,2)"><path d="M -4521,13504 L 6894,2129 18262,13536 6847,24911 -4521,13504 Z M -4476,13504 L 6894,2174 18217,13536 6847,24866 -4476,13504 Z"/></g><g style="stroke:none;fill:rgb(255,3,3)"><path d="M -4476,13504 L 6894,2174 18217,13536 6847,24866 -4476,13504 Z M -4431,13504 L 6894,2219 18171,13536 6847,24821 -4431,13504 Z"/></g><g style="stroke:none;fill:rgb(255,4,4)"><path d="M -4431,13504 L 6894,2219 18171,13536 6847,24821 -4431,13504 Z M -4385,13504 L 6893,2264 18126,13536 6847,24776 -4385,13504 Z"/></g><g style="stroke:none;fill:rgb(255,5,5)"><path d="M -4385,13504 L 6893,2264 18126,13536 6847,24776 -4385,13504 Z M -4342,13504 L 6893,2308 18082,13536 6847,24732 -4342,13504 Z"/></g><g style="stroke:none;fill:rgb(255,6,6)"><path d="M -4342,13504 L 6893,2308 18082,13536 6847,24732 -4342,13504 Z M -4296,13504 L 6893,2353 18037,13536 6847,24687 -4296,13504 Z"/></g><g style="stroke:none;fill:rgb(255,7,7)"><path d="M -4296,13504 L 6893,2353 18037,13536 6847,24687 -4296,13504 Z M -4251,13504 L 6893,2399 17992,13536 6847,24641 -4251,13504 Z"/></g><g style="stroke:none;fill:rgb(255,8,8)"><path d="M -4251,13504 L 6893,2399 17992,13536 6847,24641 -4251,13504 Z M -4206,13504 L 6893,2444 17946,13536 6847,24596 -4206,13504 Z"/></g><g style="stroke:none;fill:rgb(255,9,9)"><path d="M -4206,13504 L 6893,2444 17946,13536 6847,24596 -4206,13504 Z M -4161,13504 L 6893,2489 17901,13536 6848,24551 -4161,13504 Z"/></g><g style="stroke:none;fill:rgb(255,10,10)"><path d="M -4161,13504 L 6893,2489 17901,13536 6848,24551 -4161,13504 Z M -4115,13504 L 6893,2534 17856,13536 6848,24506 -4115,13504 Z"/></g><g style="stroke:none;fill:rgb(255,11,11)"><path d="M -4115,13504 L 6893,2534 17856,13536 6848,24506 -4115,13504 Z M -4071,13504 L 6893,2578 17812,13536 6848,24462 -4071,13504 Z"/></g><g style="stroke:none;fill:rgb(255,12,12)"><path d="M -4071,13504 L 6893,2578 17812,13536 6848,24462 -4071,13504 Z M -4026,13505 L 6893,2624 17767,13535 6848,24416 -4026,13505 Z"/></g><g style="stroke:none;fill:rgb(255,13,13)"><path d="M -4026,13505 L 6893,2624 17767,13535 6848,24416 -4026,13505 Z M -3981,13505 L 6893,2669 17722,13535 6848,24371 -3981,13505 Z"/></g><g style="stroke:none;fill:rgb(255,14,14)"><path d="M -3981,13505 L 6893,2669 17722,13535 6848,24371 -3981,13505 Z M -3936,13505 L 6893,2714 17676,13535 6848,24326 -3936,13505 Z"/></g><g style="stroke:none;fill:rgb(255,15,15)"><path d="M -3936,13505 L 6893,2714 17676,13535 6848,24326 -3936,13505 Z M -3890,13505 L 6893,2759 17631,13535 6848,24281 -3890,13505 Z"/></g><g style="stroke:none;fill:rgb(255,16,16)"><path d="M -3890,13505 L 6893,2759 17631,13535 6848,24281 -3890,13505 Z M -3845,13505 L 6893,2805 17586,13535 6848,24235 -3845,13505 Z"/></g><g style="stroke:none;fill:rgb(255,17,17)"><path d="M -3845,13505 L 6893,2805 17586,13535 6848,24235 -3845,13505 Z M -3801,13505 L 6892,2848 17542,13535 6848,24192 -3801,13505 Z"/></g><g style="stroke:none;fill:rgb(255,18,18)"><path d="M -3801,13505 L 6892,2848 17542,13535 6848,24192 -3801,13505 Z M -3756,13505 L 6892,2894 17497,13535 6848,24146 -3756,13505 Z"/></g><g style="stroke:none;fill:rgb(255,19,19)"><path d="M -3756,13505 L 6892,2894 17497,13535 6848,24146 -3756,13505 Z M -3711,13505 L 6892,2939 17451,13535 6848,24101 -3711,13505 Z"/></g><g style="stroke:none;fill:rgb(255,20,20)"><path d="M -3711,13505 L 6892,2939 17451,13535 6848,24101 -3711,13505 Z M -3666,13505 L 6892,2984 17406,13535 6848,24056 -3666,13505 Z"/></g><g style="stroke:none;fill:rgb(255,21,21)"><path d="M -3666,13505 L 6892,2984 17406,13535 6848,24056 -3666,13505 Z M -3620,13505 L 6892,3029 17361,13535 6848,24011 -3620,13505 Z"/></g><g style="stroke:none;fill:rgb(255,22,22)"><path d="M -3620,13505 L 6892,3029 17361,13535 6848,24011 -3620,13505 Z M -3575,13505 L 6892,3075 17316,13535 6849,23965 -3575,13505 Z"/></g><g style="stroke:none;fill:rgb(255,23,23)"><path d="M -3575,13505 L 6892,3075 17316,13535 6849,23965 -3575,13505 Z M -3531,13505 L 6892,3118 17272,13535 6849,23922 -3531,13505 Z"/></g><g style="stroke:none;fill:rgb(255,24,24)"><path d="M -3531,13505 L 6892,3118 17272,13535 6849,23922 -3531,13505 Z M -3486,13505 L 6892,3164 17227,13535 6849,23876 -3486,13505 Z"/></g><g style="stroke:none;fill:rgb(255,25,25)"><path d="M -3486,13505 L 6892,3164 17227,13535 6849,23876 -3486,13505 Z M -3441,13506 L 6892,3209 17181,13534 6849,23831 -3441,13506 Z"/></g><g style="stroke:none;fill:rgb(255,26,26)"><path d="M -3441,13506 L 6892,3209 17181,13534 6849,23831 -3441,13506 Z M -3395,13506 L 6892,3254 17136,13534 6849,23786 -3395,13506 Z"/></g><g style="stroke:none;fill:rgb(255,27,27)"><path d="M -3395,13506 L 6892,3254 17136,13534 6849,23786 -3395,13506 Z M -3350,13506 L 6892,3299 17091,13534 6849,23740 -3350,13506 Z"/></g><g style="stroke:none;fill:rgb(255,28,28)"><path d="M -3350,13506 L 6892,3299 17091,13534 6849,23740 -3350,13506 Z M -3305,13506 L 6892,3345 17046,13534 6849,23695 -3305,13506 Z"/></g><g style="stroke:none;fill:rgb(255,29,29)"><path d="M -3305,13506 L 6892,3345 17046,13534 6849,23695 -3305,13506 Z M -3261,13506 L 6892,3389 17002,13534 6849,23651 -3261,13506 Z"/></g><g style="stroke:none;fill:rgb(255,30,30)"><path d="M -3261,13506 L 6892,3389 17002,13534 6849,23651 -3261,13506 Z M -3216,13506 L 6891,3434 16956,13534 6849,23606 -3216,13506 Z"/></g><g style="stroke:none;fill:rgb(255,31,31)"><path d="M -3216,13506 L 6891,3434 16956,13534 6849,23606 -3216,13506 Z M -3171,13506 L 6891,3479 16911,13534 6849,23561 -3171,13506 Z"/></g><g style="stroke:none;fill:rgb(255,32,32)"><path d="M -3171,13506 L 6891,3479 16911,13534 6849,23561 -3171,13506 Z M -3125,13506 L 6891,3524 16866,13534 6849,23516 -3125,13506 Z"/></g><g style="stroke:none;fill:rgb(255,33,33)"><path d="M -3125,13506 L 6891,3524 16866,13534 6849,23516 -3125,13506 Z M -3080,13506 L 6891,3570 16821,13534 6849,23470 -3080,13506 Z"/></g><g style="stroke:none;fill:rgb(255,34,34)"><path d="M -3080,13506 L 6891,3570 16821,13534 6849,23470 -3080,13506 Z M -3035,13506 L 6891,3615 16775,13534 6849,23425 -3035,13506 Z"/></g><g style="stroke:none;fill:rgb(255,35,35)"><path d="M -3035,13506 L 6891,3615 16775,13534 6849,23425 -3035,13506 Z M -2991,13506 L 6891,3659 16732,13534 6850,23381 -2991,13506 Z"/></g><g style="stroke:none;fill:rgb(255,36,36)"><path d="M -2991,13506 L 6891,3659 16732,13534 6850,23381 -2991,13506 Z M -2946,13506 L 6891,3704 16686,13534 6850,23336 -2946,13506 Z"/></g><g style="stroke:none;fill:rgb(255,37,37)"><path d="M -2946,13506 L 6891,3704 16686,13534 6850,23336 -2946,13506 Z M -2900,13506 L 6891,3749 16641,13534 6850,23291 -2900,13506 Z"/></g><g style="stroke:none;fill:rgb(255,38,38)"><path d="M -2900,13506 L 6891,3749 16641,13534 6850,23291 -2900,13506 Z M -2855,13507 L 6891,3794 16596,13533 6850,23246 -2855,13507 Z"/></g><g style="stroke:none;fill:rgb(255,39,39)"><path d="M -2855,13507 L 6891,3794 16596,13533 6850,23246 -2855,13507 Z M -2810,13507 L 6891,3840 16551,13533 6850,23200 -2810,13507 Z"/></g><g style="stroke:none;fill:rgb(255,40,40)"><path d="M -2810,13507 L 6891,3840 16551,13533 6850,23200 -2810,13507 Z M -2765,13507 L 6891,3885 16505,13533 6850,23155 -2765,13507 Z"/></g><g style="stroke:none;fill:rgb(255,41,41)"><path d="M -2765,13507 L 6891,3885 16505,13533 6850,23155 -2765,13507 Z M -2721,13507 L 6891,3929 16461,13533 6850,23111 -2721,13507 Z"/></g><g style="stroke:none;fill:rgb(255,42,42)"><path d="M -2721,13507 L 6891,3929 16461,13533 6850,23111 -2721,13507 Z M -2676,13507 L 6890,3974 16416,13533 6850,23066 -2676,13507 Z"/></g><g style="stroke:none;fill:rgb(255,43,43)"><path d="M -2676,13507 L 6890,3974 16416,13533 6850,23066 -2676,13507 Z M -2630,13507 L 6890,4019 16371,13533 6850,23021 -2630,13507 Z"/></g><g style="stroke:none;fill:rgb(255,44,44)"><path d="M -2630,13507 L 6890,4019 16371,13533 6850,23021 -2630,13507 Z M -2585,13507 L 6890,4065 16326,13533 6850,22975 -2585,13507 Z"/></g><g style="stroke:none;fill:rgb(255,45,45)"><path d="M -2585,13507 L 6890,4065 16326,13533 6850,22975 -2585,13507 Z M -2540,13507 L 6890,4110 16280,13533 6850,22930 -2540,13507 Z"/></g><g style="stroke:none;fill:rgb(255,46,46)"><path d="M -2540,13507 L 6890,4110 16280,13533 6850,22930 -2540,13507 Z M -2495,13507 L 6890,4155 16235,13533 6850,22885 -2495,13507 Z"/></g><g style="stroke:none;fill:rgb(255,47,47)"><path d="M -2495,13507 L 6890,4155 16235,13533 6850,22885 -2495,13507 Z M -2451,13507 L 6890,4199 16191,13533 6850,22841 -2451,13507 Z"/></g><g style="stroke:none;fill:rgb(255,48,48)"><path d="M -2451,13507 L 6890,4199 16191,13533 6850,22841 -2451,13507 Z M -2406,13507 L 6890,4244 16146,13533 6851,22796 -2406,13507 Z"/></g><g style="stroke:none;fill:rgb(255,49,49)"><path d="M -2406,13507 L 6890,4244 16146,13533 6851,22796 -2406,13507 Z M -2360,13507 L 6890,4289 16101,13533 6851,22751 -2360,13507 Z"/></g><g style="stroke:none;fill:rgb(255,50,50)"><path d="M -2360,13507 L 6890,4289 16101,13533 6851,22751 -2360,13507 Z M -2315,13508 L 6890,4335 16056,13532 6851,22705 -2315,13508 Z"/></g><g style="stroke:none;fill:rgb(255,51,51)"><path d="M -2315,13508 L 6890,4335 16056,13532 6851,22705 -2315,13508 Z M -2270,13508 L 6890,4380 16010,13532 6851,22660 -2270,13508 Z"/></g><g style="stroke:none;fill:rgb(255,52,52)"><path d="M -2270,13508 L 6890,4380 16010,13532 6851,22660 -2270,13508 Z M -2225,13508 L 6890,4425 15965,13532 6851,22615 -2225,13508 Z"/></g><g style="stroke:none;fill:rgb(255,53,53)"><path d="M -2225,13508 L 6890,4425 15965,13532 6851,22615 -2225,13508 Z M -2181,13508 L 6890,4469 15921,13532 6851,22571 -2181,13508 Z"/></g><g style="stroke:none;fill:rgb(255,54,54)"><path d="M -2181,13508 L 6890,4469 15921,13532 6851,22571 -2181,13508 Z M -2135,13508 L 6890,4514 15876,13532 6851,22526 -2135,13508 Z"/></g><g style="stroke:none;fill:rgb(255,55,55)"><path d="M -2135,13508 L 6890,4514 15876,13532 6851,22526 -2135,13508 Z M -2090,13508 L 6889,4560 15831,13532 6851,22480 -2090,13508 Z"/></g><g style="stroke:none;fill:rgb(255,56,56)"><path d="M -2090,13508 L 6889,4560 15831,13532 6851,22480 -2090,13508 Z M -2045,13508 L 6889,4605 15785,13532 6851,22435 -2045,13508 Z"/></g><g style="stroke:none;fill:rgb(255,57,57)"><path d="M -2045,13508 L 6889,4605 15785,13532 6851,22435 -2045,13508 Z M -2000,13508 L 6889,4650 15740,13532 6851,22390 -2000,13508 Z"/></g><g style="stroke:none;fill:rgb(255,58,58)"><path d="M -2000,13508 L 6889,4650 15740,13532 6851,22390 -2000,13508 Z M -1954,13508 L 6889,4695 15695,13532 6851,22345 -1954,13508 Z"/></g><g style="stroke:none;fill:rgb(255,59,59)"><path d="M -1954,13508 L 6889,4695 15695,13532 6851,22345 -1954,13508 Z M -1911,13508 L 6889,4739 15651,13532 6851,22301 -1911,13508 Z"/></g><g style="stroke:none;fill:rgb(255,60,60)"><path d="M -1911,13508 L 6889,4739 15651,13532 6851,22301 -1911,13508 Z M -1865,13508 L 6889,4784 15606,13532 6852,22256 -1865,13508 Z"/></g><g style="stroke:none;fill:rgb(255,61,61)"><path d="M -1865,13508 L 6889,4784 15606,13532 6852,22256 -1865,13508 Z M -1820,13508 L 6889,4830 15561,13532 6852,22210 -1820,13508 Z"/></g><g style="stroke:none;fill:rgb(255,62,62)"><path d="M -1820,13508 L 6889,4830 15561,13532 6852,22210 -1820,13508 Z M -1775,13508 L 6889,4875 15515,13532 6852,22165 -1775,13508 Z"/></g><g style="stroke:none;fill:rgb(255,63,63)"><path d="M -1775,13508 L 6889,4875 15515,13532 6852,22165 -1775,13508 Z M -1730,13509 L 6889,4920 15470,13531 6852,22120 -1730,13509 Z"/></g><g style="stroke:none;fill:rgb(255,64,64)"><path d="M -1730,13509 L 6889,4920 15470,13531 6852,22120 -1730,13509 Z M -1684,13509 L 6889,4965 15425,13531 6852,22075 -1684,13509 Z"/></g><g style="stroke:none;fill:rgb(255,65,65)"><path d="M -1684,13509 L 6889,4965 15425,13531 6852,22075 -1684,13509 Z M -1640,13509 L 6889,5009 15381,13531 6852,22031 -1640,13509 Z"/></g><g style="stroke:none;fill:rgb(255,66,66)"><path d="M -1640,13509 L 6889,5009 15381,13531 6852,22031 -1640,13509 Z M -1595,13509 L 6889,5055 15336,13531 6852,21985 -1595,13509 Z"/></g><g style="stroke:none;fill:rgb(255,67,67)"><path d="M -1595,13509 L 6889,5055 15336,13531 6852,21985 -1595,13509 Z M -1550,13509 L 6889,5100 15291,13531 6852,21940 -1550,13509 Z"/></g><g style="stroke:none;fill:rgb(255,68,68)"><path d="M -1550,13509 L 6889,5100 15291,13531 6852,21940 -1550,13509 Z M -1505,13509 L 6888,5145 15245,13531 6852,21895 -1505,13509 Z"/></g><g style="stroke:none;fill:rgb(255,69,69)"><path d="M -1505,13509 L 6888,5145 15245,13531 6852,21895 -1505,13509 Z M -1459,13509 L 6888,5190 15200,13531 6852,21850 -1459,13509 Z"/></g><g style="stroke:none;fill:rgb(255,70,70)"><path d="M -1459,13509 L 6888,5190 15200,13531 6852,21850 -1459,13509 Z M -1414,13509 L 6888,5236 15155,13531 6852,21804 -1414,13509 Z"/></g><g style="stroke:none;fill:rgb(255,71,71)"><path d="M -1414,13509 L 6888,5236 15155,13531 6852,21804 -1414,13509 Z M -1370,13509 L 6888,5279 15111,13531 6852,21761 -1370,13509 Z"/></g><g style="stroke:none;fill:rgb(255,72,72)"><path d="M -1370,13509 L 6888,5279 15111,13531 6852,21761 -1370,13509 Z M -1325,13509 L 6888,5325 15066,13531 6852,21715 -1325,13509 Z"/></g><g style="stroke:none;fill:rgb(255,73,73)"><path d="M -1325,13509 L 6888,5325 15066,13531 6852,21715 -1325,13509 Z M -1280,13509 L 6888,5370 15020,13531 6853,21670 -1280,13509 Z"/></g><g style="stroke:none;fill:rgb(255,74,74)"><path d="M -1280,13509 L 6888,5370 15020,13531 6853,21670 -1280,13509 Z M -1235,13509 L 6888,5415 14975,13531 6853,21625 -1235,13509 Z"/></g><g style="stroke:none;fill:rgb(255,75,75)"><path d="M -1235,13509 L 6888,5415 14975,13531 6853,21625 -1235,13509 Z M -1189,13509 L 6888,5460 14930,13531 6853,21580 -1189,13509 Z"/></g><g style="stroke:none;fill:rgb(255,76,76)"><path d="M -1189,13509 L 6888,5460 14930,13531 6853,21580 -1189,13509 Z M -1144,13510 L 6888,5506 14885,13530 6853,21534 -1144,13510 Z"/></g><g style="stroke:none;fill:rgb(255,77,77)"><path d="M -1144,13510 L 6888,5506 14885,13530 6853,21534 -1144,13510 Z M -1100,13510 L 6888,5550 14841,13530 6853,21490 -1100,13510 Z"/></g><g style="stroke:none;fill:rgb(255,78,78)"><path d="M -1100,13510 L 6888,5550 14841,13530 6853,21490 -1100,13510 Z M -1055,13510 L 6888,5595 14796,13530 6853,21445 -1055,13510 Z"/></g><g style="stroke:none;fill:rgb(255,79,79)"><path d="M -1055,13510 L 6888,5595 14796,13530 6853,21445 -1055,13510 Z M -1010,13510 L 6888,5640 14750,13530 6853,21400 -1010,13510 Z"/></g><g style="stroke:none;fill:rgb(255,80,80)"><path d="M -1010,13510 L 6888,5640 14750,13530 6853,21400 -1010,13510 Z M -964,13510 L 6888,5685 14705,13530 6853,21355 -964,13510 Z"/></g><g style="stroke:none;fill:rgb(255,81,81)"><path d="M -964,13510 L 6888,5685 14705,13530 6853,21355 -964,13510 Z M -919,13510 L 6887,5731 14660,13530 6853,21309 -919,13510 Z"/></g><g style="stroke:none;fill:rgb(255,82,82)"><path d="M -919,13510 L 6887,5731 14660,13530 6853,21309 -919,13510 Z M -874,13510 L 6887,5776 14615,13530 6853,21264 -874,13510 Z"/></g><g style="stroke:none;fill:rgb(255,83,83)"><path d="M -874,13510 L 6887,5776 14615,13530 6853,21264 -874,13510 Z M -830,13510 L 6887,5820 14571,13530 6853,21220 -830,13510 Z"/></g><g style="stroke:none;fill:rgb(255,84,84)"><path d="M -830,13510 L 6887,5820 14571,13530 6853,21220 -830,13510 Z M -785,13510 L 6887,5865 14525,13530 6853,21175 -785,13510 Z"/></g><g style="stroke:none;fill:rgb(255,85,85)"><path d="M -785,13510 L 6887,5865 14525,13530 6853,21175 -785,13510 Z M -740,13510 L 6887,5910 14480,13530 6853,21130 -740,13510 Z"/></g><g style="stroke:none;fill:rgb(255,86,86)"><path d="M -740,13510 L 6887,5910 14480,13530 6853,21130 -740,13510 Z M -694,13510 L 6887,5955 14435,13530 6854,21085 -694,13510 Z"/></g><g style="stroke:none;fill:rgb(255,87,87)"><path d="M -694,13510 L 6887,5955 14435,13530 6854,21085 -694,13510 Z M -649,13510 L 6887,6001 14390,13530 6854,21039 -649,13510 Z"/></g><g style="stroke:none;fill:rgb(255,88,88)"><path d="M -649,13510 L 6887,6001 14390,13530 6854,21039 -649,13510 Z M -605,13510 L 6887,6044 14346,13530 6854,20996 -605,13510 Z"/></g><g style="stroke:none;fill:rgb(255,89,89)"><path d="M -605,13510 L 6887,6044 14346,13530 6854,20996 -605,13510 Z M -560,13511 L 6887,6090 14301,13529 6854,20950 -560,13511 Z"/></g><g style="stroke:none;fill:rgb(255,90,90)"><path d="M -560,13511 L 6887,6090 14301,13529 6854,20950 -560,13511 Z M -515,13511 L 6887,6135 14255,13529 6854,20905 -515,13511 Z"/></g><g style="stroke:none;fill:rgb(255,91,91)"><path d="M -515,13511 L 6887,6135 14255,13529 6854,20905 -515,13511 Z M -469,13511 L 6887,6180 14210,13529 6854,20860 -469,13511 Z"/></g><g style="stroke:none;fill:rgb(255,92,92)"><path d="M -469,13511 L 6887,6180 14210,13529 6854,20860 -469,13511 Z M -424,13511 L 6887,6226 14165,13529 6854,20814 -424,13511 Z"/></g><g style="stroke:none;fill:rgb(255,93,93)"><path d="M -424,13511 L 6887,6226 14165,13529 6854,20814 -424,13511 Z M -379,13511 L 6886,6271 14120,13529 6854,20769 -379,13511 Z"/></g><g style="stroke:none;fill:rgb(255,94,94)"><path d="M -379,13511 L 6886,6271 14120,13529 6854,20769 -379,13511 Z M -335,13511 L 6886,6315 14076,13529 6854,20725 -335,13511 Z"/></g><g style="stroke:none;fill:rgb(255,95,95)"><path d="M -335,13511 L 6886,6315 14076,13529 6854,20725 -335,13511 Z M -290,13511 L 6886,6360 14030,13529 6854,20680 -290,13511 Z"/></g><g style="stroke:none;fill:rgb(255,96,96)"><path d="M -290,13511 L 6886,6360 14030,13529 6854,20680 -290,13511 Z M -245,13511 L 6886,6405 13985,13529 6854,20635 -245,13511 Z"/></g><g style="stroke:none;fill:rgb(255,97,97)"><path d="M -245,13511 L 6886,6405 13985,13529 6854,20635 -245,13511 Z M -199,13511 L 6886,6450 13940,13529 6854,20590 -199,13511 Z"/></g><g style="stroke:none;fill:rgb(255,98,98)"><path d="M -199,13511 L 6886,6450 13940,13529 6854,20590 -199,13511 Z M -154,13511 L 6886,6496 13895,13529 6854,20544 -154,13511 Z"/></g><g style="stroke:none;fill:rgb(255,99,99)"><path d="M -154,13511 L 6886,6496 13895,13529 6854,20544 -154,13511 Z M -109,13511 L 6886,6541 13849,13529 6855,20499 -109,13511 Z"/></g><g style="stroke:none;fill:rgb(255,100,100)"><path d="M -109,13511 L 6886,6541 13849,13529 6855,20499 -109,13511 Z M -65,13511 L 6886,6585 13806,13529 6855,20455 -65,13511 Z"/></g><g style="stroke:none;fill:rgb(255,101,101)"><path d="M -65,13511 L 6886,6585 13806,13529 6855,20455 -65,13511 Z M -20,13512 L 6886,6630 13760,13528 6855,20410 -20,13512 Z"/></g><g style="stroke:none;fill:rgb(255,102,102)"><path d="M -20,13512 L 6886,6630 13760,13528 6855,20410 -20,13512 Z M 26,13512 L 6886,6675 13715,13528 6855,20365 26,13512 Z"/></g><g style="stroke:none;fill:rgb(255,103,103)"><path d="M 26,13512 L 6886,6675 13715,13528 6855,20365 26,13512 Z M 71,13512 L 6886,6720 13670,13528 6855,20320 71,13512 Z"/></g><g style="stroke:none;fill:rgb(255,104,104)"><path d="M 71,13512 L 6886,6720 13670,13528 6855,20320 71,13512 Z M 116,13512 L 6886,6766 13625,13528 6855,20274 116,13512 Z"/></g><g style="stroke:none;fill:rgb(255,105,105)"><path d="M 116,13512 L 6886,6766 13625,13528 6855,20274 116,13512 Z M 161,13512 L 6886,6811 13579,13528 6855,20229 161,13512 Z"/></g><g style="stroke:none;fill:rgb(255,106,106)"><path d="M 161,13512 L 6886,6811 13579,13528 6855,20229 161,13512 Z M 205,13512 L 6885,6855 13535,13528 6855,20185 205,13512 Z"/></g><g style="stroke:none;fill:rgb(255,107,107)"><path d="M 205,13512 L 6885,6855 13535,13528 6855,20185 205,13512 Z M 250,13512 L 6885,6900 13490,13528 6855,20140 250,13512 Z"/></g><g style="stroke:none;fill:rgb(255,108,108)"><path d="M 250,13512 L 6885,6900 13490,13528 6855,20140 250,13512 Z M 296,13512 L 6885,6945 13445,13528 6855,20095 296,13512 Z"/></g><g style="stroke:none;fill:rgb(255,109,109)"><path d="M 296,13512 L 6885,6945 13445,13528 6855,20095 296,13512 Z M 341,13512 L 6885,6991 13400,13528 6855,20049 341,13512 Z"/></g><g style="stroke:none;fill:rgb(255,110,110)"><path d="M 341,13512 L 6885,6991 13400,13528 6855,20049 341,13512 Z M 386,13512 L 6885,7036 13354,13528 6855,20004 386,13512 Z"/></g><g style="stroke:none;fill:rgb(255,111,111)"><path d="M 386,13512 L 6885,7036 13354,13528 6855,20004 386,13512 Z M 431,13512 L 6885,7081 13309,13528 6856,19959 431,13512 Z"/></g><g style="stroke:none;fill:rgb(255,112,112)"><path d="M 431,13512 L 6885,7081 13309,13528 6856,19959 431,13512 Z M 475,13512 L 6885,7125 13265,13528 6856,19915 475,13512 Z"/></g><g style="stroke:none;fill:rgb(255,113,113)"><path d="M 475,13512 L 6885,7125 13265,13528 6856,19915 475,13512 Z M 520,13512 L 6885,7170 13220,13528 6856,19870 520,13512 Z"/></g><g style="stroke:none;fill:rgb(255,114,114)"><path d="M 520,13512 L 6885,7170 13220,13528 6856,19870 520,13512 Z M 566,13513 L 6885,7215 13175,13527 6856,19825 566,13513 Z"/></g><g style="stroke:none;fill:rgb(255,115,115)"><path d="M 566,13513 L 6885,7215 13175,13527 6856,19825 566,13513 Z M 611,13513 L 6885,7261 13130,13527 6856,19779 611,13513 Z"/></g><g style="stroke:none;fill:rgb(255,116,116)"><path d="M 611,13513 L 6885,7261 13130,13527 6856,19779 611,13513 Z M 656,13513 L 6885,7306 13084,13527 6856,19734 656,13513 Z"/></g><g style="stroke:none;fill:rgb(255,117,117)"><path d="M 656,13513 L 6885,7306 13084,13527 6856,19734 656,13513 Z M 701,13513 L 6885,7351 13039,13527 6856,19689 701,13513 Z"/></g><g style="stroke:none;fill:rgb(255,118,118)"><path d="M 701,13513 L 6885,7351 13039,13527 6856,19689 701,13513 Z M 745,13513 L 6885,7395 12995,13527 6856,19645 745,13513 Z"/></g><g style="stroke:none;fill:rgb(255,119,119)"><path d="M 745,13513 L 6885,7395 12995,13527 6856,19645 745,13513 Z M 791,13513 L 6884,7440 12950,13527 6856,19600 791,13513 Z"/></g><g style="stroke:none;fill:rgb(255,120,120)"><path d="M 791,13513 L 6884,7440 12950,13527 6856,19600 791,13513 Z M 836,13513 L 6884,7486 12905,13527 6856,19554 836,13513 Z"/></g><g style="stroke:none;fill:rgb(255,121,121)"><path d="M 836,13513 L 6884,7486 12905,13527 6856,19554 836,13513 Z M 881,13513 L 6884,7531 12859,13527 6856,19509 881,13513 Z"/></g><g style="stroke:none;fill:rgb(255,122,122)"><path d="M 881,13513 L 6884,7531 12859,13527 6856,19509 881,13513 Z M 926,13513 L 6884,7576 12814,13527 6856,19464 926,13513 Z"/></g><g style="stroke:none;fill:rgb(255,123,123)"><path d="M 926,13513 L 6884,7576 12814,13527 6856,19464 926,13513 Z M 972,13513 L 6884,7621 12769,13527 6856,19419 972,13513 Z"/></g><g style="stroke:none;fill:rgb(255,124,124)"><path d="M 972,13513 L 6884,7621 12769,13527 6856,19419 972,13513 Z M 1015,13513 L 6884,7665 12725,13527 6857,19375 1015,13513 Z"/></g><g style="stroke:none;fill:rgb(255,125,125)"><path d="M 1015,13513 L 6884,7665 12725,13527 6857,19375 1015,13513 Z M 1061,13513 L 6884,7710 12680,13527 6857,19330 1061,13513 Z"/></g><g style="stroke:none;fill:rgb(255,126,126)"><path d="M 1061,13513 L 6884,7710 12680,13527 6857,19330 1061,13513 Z M 1106,13513 L 6884,7756 12635,13527 6857,19284 1106,13513 Z"/></g><g style="stroke:none;fill:rgb(255,127,127)"><path d="M 1106,13513 L 6884,7756 12635,13527 6857,19284 1106,13513 Z M 1151,13514 L 6884,7801 12589,13526 6857,19239 1151,13514 Z"/></g><g style="stroke:none;fill:rgb(255,128,128)"><path d="M 1151,13514 L 6884,7801 12589,13526 6857,19239 1151,13514 Z M 1196,13514 L 6884,7846 12544,13526 6857,19194 1196,13514 Z"/></g><g style="stroke:none;fill:rgb(255,129,129)"><path d="M 1196,13514 L 6884,7846 12544,13526 6857,19194 1196,13514 Z M 1242,13514 L 6884,7891 12499,13526 6857,19149 1242,13514 Z"/></g><g style="stroke:none;fill:rgb(255,130,130)"><path d="M 1242,13514 L 6884,7891 12499,13526 6857,19149 1242,13514 Z M 1286,13514 L 6884,7935 12455,13526 6857,19105 1286,13514 Z"/></g><g style="stroke:none;fill:rgb(255,131,131)"><path d="M 1286,13514 L 6884,7935 12455,13526 6857,19105 1286,13514 Z M 1331,13514 L 6883,7981 12410,13526 6857,19059 1331,13514 Z"/></g><g style="stroke:none;fill:rgb(255,132,132)"><path d="M 1331,13514 L 6883,7981 12410,13526 6857,19059 1331,13514 Z M 1376,13514 L 6883,8026 12365,13526 6857,19014 1376,13514 Z"/></g><g style="stroke:none;fill:rgb(255,133,133)"><path d="M 1376,13514 L 6883,8026 12365,13526 6857,19014 1376,13514 Z M 1421,13514 L 6883,8071 12319,13526 6857,18969 1421,13514 Z"/></g><g style="stroke:none;fill:rgb(255,134,134)"><path d="M 1421,13514 L 6883,8071 12319,13526 6857,18969 1421,13514 Z M 1467,13514 L 6883,8116 12274,13526 6857,18924 1467,13514 Z"/></g><g style="stroke:none;fill:rgb(255,135,135)"><path d="M 1467,13514 L 6883,8116 12274,13526 6857,18924 1467,13514 Z M 1512,13514 L 6883,8162 12229,13526 6857,18878 1512,13514 Z"/></g><g style="stroke:none;fill:rgb(255,136,136)"><path d="M 1512,13514 L 6883,8162 12229,13526 6857,18878 1512,13514 Z M 1556,13514 L 6883,8205 12185,13526 6857,18835 1556,13514 Z"/></g><g style="stroke:none;fill:rgb(255,137,137)"><path d="M 1556,13514 L 6883,8205 12185,13526 6857,18835 1556,13514 Z M 1601,13514 L 6883,8251 12140,13526 6858,18789 1601,13514 Z"/></g><g style="stroke:none;fill:rgb(255,138,138)"><path d="M 1601,13514 L 6883,8251 12140,13526 6858,18789 1601,13514 Z M 1646,13514 L 6883,8296 12094,13526 6858,18744 1646,13514 Z"/></g><g style="stroke:none;fill:rgb(255,139,139)"><path d="M 1646,13514 L 6883,8296 12094,13526 6858,18744 1646,13514 Z M 1691,13514 L 6883,8341 12049,13526 6858,18699 1691,13514 Z"/></g><g style="stroke:none;fill:rgb(255,140,140)"><path d="M 1691,13514 L 6883,8341 12049,13526 6858,18699 1691,13514 Z M 1737,13515 L 6883,8386 12004,13525 6858,18654 1737,13515 Z"/></g><g style="stroke:none;fill:rgb(255,141,141)"><path d="M 1737,13515 L 6883,8386 12004,13525 6858,18654 1737,13515 Z M 1782,13515 L 6883,8432 11959,13525 6858,18608 1782,13515 Z"/></g><g style="stroke:none;fill:rgb(255,142,142)"><path d="M 1782,13515 L 6883,8432 11959,13525 6858,18608 1782,13515 Z M 1826,13515 L 6883,8476 11915,13525 6858,18564 1826,13515 Z"/></g><g style="stroke:none;fill:rgb(255,143,143)"><path d="M 1826,13515 L 6883,8476 11915,13525 6858,18564 1826,13515 Z M 1871,13515 L 6883,8521 11870,13525 6858,18519 1871,13515 Z"/></g><g style="stroke:none;fill:rgb(255,144,144)"><path d="M 1871,13515 L 6883,8521 11870,13525 6858,18519 1871,13515 Z M 1916,13515 L 6882,8566 11824,13525 6858,18474 1916,13515 Z"/></g><g style="stroke:none;fill:rgb(255,145,145)"><path d="M 1916,13515 L 6882,8566 11824,13525 6858,18474 1916,13515 Z M 1962,13515 L 6882,8611 11779,13525 6858,18429 1962,13515 Z"/></g><g style="stroke:none;fill:rgb(255,146,146)"><path d="M 1962,13515 L 6882,8611 11779,13525 6858,18429 1962,13515 Z M 2007,13515 L 6882,8657 11734,13525 6858,18383 2007,13515 Z"/></g><g style="stroke:none;fill:rgb(255,147,147)"><path d="M 2007,13515 L 6882,8657 11734,13525 6858,18383 2007,13515 Z M 2052,13515 L 6882,8702 11689,13525 6858,18338 2052,13515 Z"/></g><g style="stroke:none;fill:rgb(255,148,148)"><path d="M 2052,13515 L 6882,8702 11689,13525 6858,18338 2052,13515 Z M 2096,13515 L 6882,8746 11645,13525 6858,18294 2096,13515 Z"/></g><g style="stroke:none;fill:rgb(255,149,149)"><path d="M 2096,13515 L 6882,8746 11645,13525 6858,18294 2096,13515 Z M 2141,13515 L 6882,8791 11599,13525 6859,18249 2141,13515 Z"/></g><g style="stroke:none;fill:rgb(255,150,150)"><path d="M 2141,13515 L 6882,8791 11599,13525 6859,18249 2141,13515 Z M 2186,13515 L 6882,8836 11554,13525 6859,18204 2186,13515 Z"/></g><g style="stroke:none;fill:rgb(255,151,151)"><path d="M 2186,13515 L 6882,8836 11554,13525 6859,18204 2186,13515 Z M 2232,13515 L 6882,8881 11509,13525 6859,18159 2232,13515 Z"/></g><g style="stroke:none;fill:rgb(255,152,152)"><path d="M 2232,13515 L 6882,8881 11509,13525 6859,18159 2232,13515 Z M 2277,13516 L 6882,8927 11464,13524 6859,18113 2277,13516 Z"/></g><g style="stroke:none;fill:rgb(255,153,153)"><path d="M 2277,13516 L 6882,8927 11464,13524 6859,18113 2277,13516 Z M 2322,13516 L 6882,8972 11418,13524 6859,18068 2322,13516 Z"/></g><g style="stroke:none;fill:rgb(255,154,154)"><path d="M 2322,13516 L 6882,8972 11418,13524 6859,18068 2322,13516 Z M 2366,13516 L 6882,9016 11375,13524 6859,18024 2366,13516 Z"/></g><g style="stroke:none;fill:rgb(255,155,155)"><path d="M 2366,13516 L 6882,9016 11375,13524 6859,18024 2366,13516 Z M 2411,13516 L 6882,9061 11329,13524 6859,17979 2411,13516 Z"/></g><g style="stroke:none;fill:rgb(255,156,156)"><path d="M 2411,13516 L 6882,9061 11329,13524 6859,17979 2411,13516 Z M 2457,13516 L 6882,9106 11284,13524 6859,17934 2457,13516 Z"/></g><g style="stroke:none;fill:rgb(255,157,157)"><path d="M 2457,13516 L 6882,9106 11284,13524 6859,17934 2457,13516 Z M 2502,13516 L 6881,9152 11239,13524 6859,17888 2502,13516 Z"/></g><g style="stroke:none;fill:rgb(255,158,158)"><path d="M 2502,13516 L 6881,9152 11239,13524 6859,17888 2502,13516 Z M 2547,13516 L 6881,9197 11194,13524 6859,17843 2547,13516 Z"/></g><g style="stroke:none;fill:rgb(255,159,159)"><path d="M 2547,13516 L 6881,9197 11194,13524 6859,17843 2547,13516 Z M 2592,13516 L 6881,9242 11148,13524 6859,17798 2592,13516 Z"/></g><g style="stroke:none;fill:rgb(255,160,160)"><path d="M 2592,13516 L 6881,9242 11148,13524 6859,17798 2592,13516 Z M 2636,13516 L 6881,9286 11104,13524 6859,17754 2636,13516 Z"/></g><g style="stroke:none;fill:rgb(255,161,161)"><path d="M 2636,13516 L 6881,9286 11104,13524 6859,17754 2636,13516 Z M 2681,13516 L 6881,9331 11059,13524 6859,17709 2681,13516 Z"/></g><g style="stroke:none;fill:rgb(255,162,162)"><path d="M 2681,13516 L 6881,9331 11059,13524 6859,17709 2681,13516 Z M 2727,13516 L 6881,9376 11014,13524 6860,17664 2727,13516 Z"/></g><g style="stroke:none;fill:rgb(255,163,163)"><path d="M 2727,13516 L 6881,9376 11014,13524 6860,17664 2727,13516 Z M 2772,13516 L 6881,9422 10969,13524 6860,17618 2772,13516 Z"/></g><g style="stroke:none;fill:rgb(255,164,164)"><path d="M 2772,13516 L 6881,9422 10969,13524 6860,17618 2772,13516 Z M 2817,13516 L 6881,9467 10923,13524 6860,17573 2817,13516 Z"/></g><g style="stroke:none;fill:rgb(255,165,165)"><path d="M 2817,13516 L 6881,9467 10923,13524 6860,17573 2817,13516 Z M 2862,13517 L 6881,9512 10878,13523 6860,17528 2862,13517 Z"/></g><g style="stroke:none;fill:rgb(255,166,166)"><path d="M 2862,13517 L 6881,9512 10878,13523 6860,17528 2862,13517 Z M 2906,13517 L 6881,9556 10834,13523 6860,17484 2906,13517 Z"/></g><g style="stroke:none;fill:rgb(255,167,167)"><path d="M 2906,13517 L 6881,9556 10834,13523 6860,17484 2906,13517 Z M 2952,13517 L 6881,9601 10789,13523 6860,17439 2952,13517 Z"/></g><g style="stroke:none;fill:rgb(255,168,168)"><path d="M 2952,13517 L 6881,9601 10789,13523 6860,17439 2952,13517 Z M 2997,13517 L 6881,9646 10744,13523 6860,17394 2997,13517 Z"/></g><g style="stroke:none;fill:rgb(255,169,169)"><path d="M 2997,13517 L 6881,9646 10744,13523 6860,17394 2997,13517 Z M 3042,13517 L 6881,9692 10699,13523 6860,17348 3042,13517 Z"/></g><g style="stroke:none;fill:rgb(255,170,170)"><path d="M 3042,13517 L 6881,9692 10699,13523 6860,17348 3042,13517 Z M 3087,13517 L 6880,9737 10653,13523 6860,17303 3087,13517 Z"/></g><g style="stroke:none;fill:rgb(255,171,171)"><path d="M 3087,13517 L 6880,9737 10653,13523 6860,17303 3087,13517 Z M 3131,13517 L 6880,9781 10609,13523 6860,17259 3131,13517 Z"/></g><g style="stroke:none;fill:rgb(255,172,172)"><path d="M 3131,13517 L 6880,9781 10609,13523 6860,17259 3131,13517 Z M 3176,13517 L 6880,9826 10564,13523 6860,17214 3176,13517 Z"/></g><g style="stroke:none;fill:rgb(255,173,173)"><path d="M 3176,13517 L 6880,9826 10564,13523 6860,17214 3176,13517 Z M 3222,13517 L 6880,9871 10519,13523 6860,17169 3222,13517 Z"/></g><g style="stroke:none;fill:rgb(255,174,174)"><path d="M 3222,13517 L 6880,9871 10519,13523 6860,17169 3222,13517 Z M 3267,13517 L 6880,9917 10474,13523 6860,17123 3267,13517 Z"/></g><g style="stroke:none;fill:rgb(255,175,175)"><path d="M 3267,13517 L 6880,9917 10474,13523 6860,17123 3267,13517 Z M 3311,13517 L 6879,9961 10428,13523 6861,17078 3311,13517 Z"/></g><g style="stroke:none;fill:rgb(255,176,176)"><path d="M 3311,13517 L 6879,9961 10428,13523 6861,17078 3311,13517 Z M 3357,13517 L 6879,10006 10383,13523 6861,17033 3357,13517 Z"/></g><g style="stroke:none;fill:rgb(255,177,177)"><path d="M 3357,13517 L 6879,10006 10383,13523 6861,17033 3357,13517 Z M 3401,13517 L 6879,10050 10339,13523 6861,16989 3401,13517 Z"/></g><g style="stroke:none;fill:rgb(255,178,178)"><path d="M 3401,13517 L 6879,10050 10339,13523 6861,16989 3401,13517 Z M 3446,13517 L 6879,10095 10294,13522 6861,16944 3446,13517 Z"/></g><g style="stroke:none;fill:rgb(255,179,179)"><path d="M 3446,13517 L 6879,10095 10294,13522 6861,16944 3446,13517 Z M 3491,13517 L 6879,10141 10249,13522 6861,16899 3491,13517 Z"/></g><g style="stroke:none;fill:rgb(255,180,180)"><path d="M 3491,13517 L 6879,10141 10249,13522 6861,16899 3491,13517 Z M 3536,13517 L 6879,10186 10204,13522 6861,16853 3536,13517 Z"/></g><g style="stroke:none;fill:rgb(255,181,181)"><path d="M 3536,13517 L 6879,10186 10204,13522 6861,16853 3536,13517 Z M 3582,13517 L 6879,10231 10158,13522 6861,16808 3582,13517 Z"/></g><g style="stroke:none;fill:rgb(255,182,182)"><path d="M 3582,13517 L 6879,10231 10158,13522 6861,16808 3582,13517 Z M 3627,13517 L 6879,10277 10113,13522 6861,16763 3627,13517 Z"/></g><g style="stroke:none;fill:rgb(255,183,183)"><path d="M 3627,13517 L 6879,10277 10113,13522 6861,16763 3627,13517 Z M 3671,13517 L 6879,10320 10069,13522 6861,16719 3671,13517 Z"/></g><g style="stroke:none;fill:rgb(255,184,184)"><path d="M 3671,13517 L 6879,10320 10069,13522 6861,16719 3671,13517 Z M 3716,13517 L 6879,10366 10024,13522 6861,16674 3716,13517 Z"/></g><g style="stroke:none;fill:rgb(255,185,185)"><path d="M 3716,13517 L 6879,10366 10024,13522 6861,16674 3716,13517 Z M 3761,13517 L 6879,10411 9979,13522 6861,16628 3761,13517 Z"/></g><g style="stroke:none;fill:rgb(255,186,186)"><path d="M 3761,13517 L 6879,10411 9979,13522 6861,16628 3761,13517 Z M 3806,13517 L 6878,10456 9933,13522 6861,16583 3806,13517 Z"/></g><g style="stroke:none;fill:rgb(255,187,187)"><path d="M 3806,13517 L 6878,10456 9933,13522 6861,16583 3806,13517 Z M 3852,13518 L 6878,10501 9888,13522 6861,16538 3852,13518 Z"/></g><g style="stroke:none;fill:rgb(255,188,188)"><path d="M 3852,13518 L 6878,10501 9888,13522 6861,16538 3852,13518 Z M 3897,13518 L 6878,10547 9843,13522 6862,16493 3897,13518 Z"/></g><g style="stroke:none;fill:rgb(255,189,189)"><path d="M 3897,13518 L 6878,10547 9843,13522 6862,16493 3897,13518 Z M 3941,13518 L 6878,10590 9799,13522 6862,16449 3941,13518 Z"/></g><g style="stroke:none;fill:rgb(255,190,190)"><path d="M 3941,13518 L 6878,10590 9799,13522 6862,16449 3941,13518 Z M 3986,13518 L 6878,10636 9754,13521 6862,16404 3986,13518 Z"/></g><g style="stroke:none;fill:rgb(255,191,191)"><path d="M 3986,13518 L 6878,10636 9754,13521 6862,16404 3986,13518 Z M 4031,13518 L 6878,10681 9709,13521 6862,16358 4031,13518 Z"/></g><g style="stroke:none;fill:rgb(255,192,192)"><path d="M 4031,13518 L 6878,10681 9709,13521 6862,16358 4031,13518 Z M 4077,13518 L 6878,10726 9663,13521 6862,16313 4077,13518 Z"/></g><g style="stroke:none;fill:rgb(255,193,193)"><path d="M 4077,13518 L 6878,10726 9663,13521 6862,16313 4077,13518 Z M 4122,13518 L 6878,10771 9618,13521 6862,16268 4122,13518 Z"/></g><g style="stroke:none;fill:rgb(255,194,194)"><path d="M 4122,13518 L 6878,10771 9618,13521 6862,16268 4122,13518 Z M 4167,13518 L 6878,10817 9573,13521 6862,16223 4167,13518 Z"/></g><g style="stroke:none;fill:rgb(255,195,195)"><path d="M 4167,13518 L 6878,10817 9573,13521 6862,16223 4167,13518 Z M 4211,13518 L 6878,10861 9529,13521 6862,16179 4211,13518 Z"/></g><g style="stroke:none;fill:rgb(255,196,196)"><path d="M 4211,13518 L 6878,10861 9529,13521 6862,16179 4211,13518 Z M 4255,13519 L 6878,10906 9484,13521 6861,16134 4255,13519 Z"/></g><g style="stroke:none;fill:rgb(255,197,197)"><path d="M 4255,13519 L 6878,10906 9484,13521 6861,16134 4255,13519 Z M 4301,13519 L 6878,10951 9439,13521 6862,16089 4301,13519 Z"/></g><g style="stroke:none;fill:rgb(255,198,198)"><path d="M 4301,13519 L 6878,10951 9439,13521 6862,16089 4301,13519 Z M 4346,13519 L 6878,10996 9393,13521 6862,16044 4346,13519 Z"/></g><g style="stroke:none;fill:rgb(255,199,199)"><path d="M 4346,13519 L 6878,10996 9393,13521 6862,16044 4346,13519 Z M 4391,13519 L 6877,11042 9348,13521 6862,15998 4391,13519 Z"/></g><g style="stroke:none;fill:rgb(255,200,200)"><path d="M 4391,13519 L 6877,11042 9348,13521 6862,15998 4391,13519 Z M 4436,13519 L 6877,11087 9303,13521 6862,15953 4436,13519 Z"/></g><g style="stroke:none;fill:rgb(255,201,201)"><path d="M 4436,13519 L 6877,11087 9303,13521 6862,15953 4436,13519 Z M 4480,13519 L 6877,11131 9259,13521 6862,15909 4480,13519 Z"/></g><g style="stroke:none;fill:rgb(255,202,202)"><path d="M 4480,13519 L 6877,11131 9259,13521 6862,15909 4480,13519 Z M 4526,13519 L 6877,11176 9214,13521 6862,15864 4526,13519 Z"/></g><g style="stroke:none;fill:rgb(255,203,203)"><path d="M 4526,13519 L 6877,11176 9214,13521 6862,15864 4526,13519 Z M 4571,13520 L 6877,11221 9168,13520 6862,15819 4571,13520 Z"/></g><g style="stroke:none;fill:rgb(255,204,204)"><path d="M 4571,13520 L 6877,11221 9168,13520 6862,15819 4571,13520 Z M 4616,13520 L 6877,11266 9123,13520 6862,15774 4616,13520 Z"/></g><g style="stroke:none;fill:rgb(255,205,205)"><path d="M 4616,13520 L 6877,11266 9123,13520 6862,15774 4616,13520 Z M 4661,13520 L 6877,11312 9078,13520 6862,15728 4661,13520 Z"/></g><g style="stroke:none;fill:rgb(255,206,206)"><path d="M 4661,13520 L 6877,11312 9078,13520 6862,15728 4661,13520 Z M 4707,13520 L 6877,11357 9033,13520 6862,15683 4707,13520 Z"/></g><g style="stroke:none;fill:rgb(255,207,207)"><path d="M 4707,13520 L 6877,11357 9033,13520 6862,15683 4707,13520 Z M 4750,13520 L 6877,11401 8989,13520 6862,15639 4750,13520 Z"/></g><g style="stroke:none;fill:rgb(255,208,208)"><path d="M 4750,13520 L 6877,11401 8989,13520 6862,15639 4750,13520 Z M 4796,13520 L 6877,11446 8944,13520 6862,15594 4796,13520 Z"/></g><g style="stroke:none;fill:rgb(255,209,209)"><path d="M 4796,13520 L 6877,11446 8944,13520 6862,15594 4796,13520 Z M 4841,13520 L 6877,11491 8898,13520 6863,15549 4841,13520 Z"/></g><g style="stroke:none;fill:rgb(255,210,210)"><path d="M 4841,13520 L 6877,11491 8898,13520 6863,15549 4841,13520 Z M 4886,13520 L 6877,11537 8853,13520 6863,15503 4886,13520 Z"/></g><g style="stroke:none;fill:rgb(255,211,211)"><path d="M 4886,13520 L 6877,11537 8853,13520 6863,15503 4886,13520 Z M 4931,13520 L 6877,11582 8808,13520 6863,15458 4931,13520 Z"/></g><g style="stroke:none;fill:rgb(255,212,212)"><path d="M 4931,13520 L 6877,11582 8808,13520 6863,15458 4931,13520 Z M 4977,13520 L 6876,11627 8763,13520 6863,15413 4977,13520 Z"/></g><g style="stroke:none;fill:rgb(255,213,213)"><path d="M 4977,13520 L 6876,11627 8763,13520 6863,15413 4977,13520 Z M 5020,13520 L 6876,11671 8719,13520 6863,15369 5020,13520 Z"/></g><g style="stroke:none;fill:rgb(255,214,214)"><path d="M 5020,13520 L 6876,11671 8719,13520 6863,15369 5020,13520 Z M 5066,13520 L 6876,11716 8673,13520 6863,15324 5066,13520 Z"/></g><g style="stroke:none;fill:rgb(255,215,215)"><path d="M 5066,13520 L 6876,11716 8673,13520 6863,15324 5066,13520 Z M 5111,13520 L 6876,11761 8628,13520 6863,15279 5111,13520 Z"/></g><g style="stroke:none;fill:rgb(255,216,216)"><path d="M 5111,13520 L 6876,11761 8628,13520 6863,15279 5111,13520 Z M 5156,13521 L 6876,11807 8583,13519 6863,15233 5156,13521 Z"/></g><g style="stroke:none;fill:rgb(255,217,217)"><path d="M 5156,13521 L 6876,11807 8583,13519 6863,15233 5156,13521 Z M 5202,13521 L 6876,11852 8538,13519 6863,15188 5202,13521 Z"/></g><g style="stroke:none;fill:rgb(255,218,218)"><path d="M 5202,13521 L 6876,11852 8538,13519 6863,15188 5202,13521 Z M 5247,13521 L 6876,11897 8492,13519 6863,15143 5247,13521 Z"/></g><g style="stroke:none;fill:rgb(255,219,219)"><path d="M 5247,13521 L 6876,11897 8492,13519 6863,15143 5247,13521 Z M 5291,13521 L 6876,11941 8449,13519 6863,15099 5291,13521 Z"/></g><g style="stroke:none;fill:rgb(255,220,220)"><path d="M 5291,13521 L 6876,11941 8449,13519 6863,15099 5291,13521 Z M 5336,13521 L 6876,11986 8403,13519 6863,15054 5336,13521 Z"/></g><g style="stroke:none;fill:rgb(255,221,221)"><path d="M 5336,13521 L 6876,11986 8403,13519 6863,15054 5336,13521 Z M 5381,13521 L 6876,12032 8358,13519 6863,15008 5381,13521 Z"/></g><g style="stroke:none;fill:rgb(255,222,222)"><path d="M 5381,13521 L 6876,12032 8358,13519 6863,15008 5381,13521 Z M 5426,13521 L 6876,12077 8313,13519 6864,14963 5426,13521 Z"/></g><g style="stroke:none;fill:rgb(255,223,223)"><path d="M 5426,13521 L 6876,12077 8313,13519 6864,14963 5426,13521 Z M 5472,13521 L 6876,12122 8268,13519 6864,14918 5472,13521 Z"/></g><g style="stroke:none;fill:rgb(255,224,224)"><path d="M 5472,13521 L 6876,12122 8268,13519 6864,14918 5472,13521 Z M 5517,13521 L 6875,12167 8222,13519 6864,14873 5517,13521 Z"/></g><g style="stroke:none;fill:rgb(255,225,225)"><path d="M 5517,13521 L 6875,12167 8222,13519 6864,14873 5517,13521 Z M 5561,13521 L 6875,12211 8178,13519 6864,14829 5561,13521 Z"/></g><g style="stroke:none;fill:rgb(255,226,226)"><path d="M 5561,13521 L 6875,12211 8178,13519 6864,14829 5561,13521 Z M 5606,13521 L 6875,12256 8133,13519 6864,14784 5606,13521 Z"/></g><g style="stroke:none;fill:rgb(255,227,227)"><path d="M 5606,13521 L 6875,12256 8133,13519 6864,14784 5606,13521 Z M 5651,13521 L 6875,12302 8088,13519 6864,14738 5651,13521 Z"/></g><g style="stroke:none;fill:rgb(255,228,228)"><path d="M 5651,13521 L 6875,12302 8088,13519 6864,14738 5651,13521 Z M 5696,13521 L 6875,12347 8043,13519 6864,14693 5696,13521 Z"/></g><g style="stroke:none;fill:rgb(255,229,229)"><path d="M 5696,13521 L 6875,12347 8043,13519 6864,14693 5696,13521 Z M 5742,13522 L 6875,12392 7997,13518 6864,14648 5742,13522 Z"/></g><g style="stroke:none;fill:rgb(255,230,230)"><path d="M 5742,13522 L 6875,12392 7997,13518 6864,14648 5742,13522 Z M 5787,13522 L 6875,12437 7952,13518 6864,14603 5787,13522 Z"/></g><g style="stroke:none;fill:rgb(255,231,231)"><path d="M 5787,13522 L 6875,12437 7952,13518 6864,14603 5787,13522 Z M 5831,13522 L 6875,12481 7908,13518 6864,14559 5831,13522 Z"/></g><g style="stroke:none;fill:rgb(255,232,232)"><path d="M 5831,13522 L 6875,12481 7908,13518 6864,14559 5831,13522 Z M 5876,13522 L 6875,12527 7863,13518 6864,14513 5876,13522 Z"/></g><g style="stroke:none;fill:rgb(255,233,233)"><path d="M 5876,13522 L 6875,12527 7863,13518 6864,14513 5876,13522 Z M 5921,13522 L 6875,12572 7818,13518 6864,14468 5921,13522 Z"/></g><g style="stroke:none;fill:rgb(255,234,234)"><path d="M 5921,13522 L 6875,12572 7818,13518 6864,14468 5921,13522 Z M 5967,13522 L 6875,12617 7773,13518 6864,14423 5967,13522 Z"/></g><g style="stroke:none;fill:rgb(255,235,235)"><path d="M 5967,13522 L 6875,12617 7773,13518 6864,14423 5967,13522 Z M 6012,13522 L 6875,12662 7727,13518 6865,14378 6012,13522 Z"/></g><g style="stroke:none;fill:rgb(255,236,236)"><path d="M 6012,13522 L 6875,12662 7727,13518 6865,14378 6012,13522 Z M 6057,13522 L 6875,12708 7682,13518 6865,14332 6057,13522 Z"/></g><g style="stroke:none;fill:rgb(255,237,237)"><path d="M 6057,13522 L 6875,12708 7682,13518 6865,14332 6057,13522 Z M 6101,13522 L 6874,12751 7638,13518 6865,14289 6101,13522 Z"/></g><g style="stroke:none;fill:rgb(255,238,238)"><path d="M 6101,13522 L 6874,12751 7638,13518 6865,14289 6101,13522 Z M 6146,13522 L 6874,12797 7593,13518 6865,14243 6146,13522 Z"/></g><g style="stroke:none;fill:rgb(255,239,239)"><path d="M 6146,13522 L 6874,12797 7593,13518 6865,14243 6146,13522 Z M 6191,13522 L 6874,12842 7548,13518 6865,14198 6191,13522 Z"/></g><g style="stroke:none;fill:rgb(255,240,240)"><path d="M 6191,13522 L 6874,12842 7548,13518 6865,14198 6191,13522 Z M 6237,13522 L 6874,12887 7502,13518 6865,14153 6237,13522 Z"/></g><g style="stroke:none;fill:rgb(255,241,241)"><path d="M 6237,13522 L 6874,12887 7502,13518 6865,14153 6237,13522 Z M 6282,13523 L 6874,12932 7457,13517 6865,14108 6282,13523 Z"/></g><g style="stroke:none;fill:rgb(255,242,242)"><path d="M 6282,13523 L 6874,12932 7457,13517 6865,14108 6282,13523 Z M 6327,13523 L 6874,12978 7412,13517 6865,14062 6327,13523 Z"/></g><g style="stroke:none;fill:rgb(255,243,243)"><path d="M 6327,13523 L 6874,12978 7412,13517 6865,14062 6327,13523 Z M 6371,13523 L 6874,13021 7368,13517 6865,14019 6371,13523 Z"/></g><g style="stroke:none;fill:rgb(255,244,244)"><path d="M 6371,13523 L 6874,13021 7368,13517 6865,14019 6371,13523 Z M 6416,13523 L 6874,13067 7323,13517 6865,13973 6416,13523 Z"/></g><g style="stroke:none;fill:rgb(255,245,245)"><path d="M 6416,13523 L 6874,13067 7323,13517 6865,13973 6416,13523 Z M 6462,13523 L 6874,13112 7278,13517 6865,13928 6462,13523 Z"/></g><g style="stroke:none;fill:rgb(255,246,246)"><path d="M 6462,13523 L 6874,13112 7278,13517 6865,13928 6462,13523 Z M 6507,13523 L 6874,13157 7232,13517 6865,13883 6507,13523 Z"/></g><g style="stroke:none;fill:rgb(255,247,247)"><path d="M 6507,13523 L 6874,13157 7232,13517 6865,13883 6507,13523 Z M 6552,13523 L 6874,13203 7187,13517 6865,13837 6552,13523 Z"/></g><g style="stroke:none;fill:rgb(255,248,248)"><path d="M 6552,13523 L 6874,13203 7187,13517 6865,13837 6552,13523 Z M 6597,13523 L 6874,13248 7142,13517 6866,13792 6597,13523 Z"/></g><g style="stroke:none;fill:rgb(255,249,249)"><path d="M 6597,13523 L 6874,13248 7142,13517 6866,13792 6597,13523 Z M 6641,13523 L 6874,13292 7098,13517 6866,13748 6641,13523 Z"/></g><g style="stroke:none;fill:rgb(255,250,250)"><path d="M 6641,13523 L 6874,13292 7098,13517 6866,13748 6641,13523 Z M 6686,13523 L 6873,13337 7053,13517 6866,13703 6686,13523 Z"/></g><g style="stroke:none;fill:rgb(255,251,251)"><path d="M 6686,13523 L 6873,13337 7053,13517 6866,13703 6686,13523 Z M 6732,13523 L 6873,13382 7007,13517 6866,13658 6732,13523 Z"/></g><g style="stroke:none;fill:rgb(255,252,252)"><path d="M 6732,13523 L 6873,13382 7007,13517 6866,13658 6732,13523 Z M 6777,13523 L 6873,13427 6962,13517 6866,13613 6777,13523 Z"/></g><g style="stroke:none;fill:rgb(255,253,253)"><path d="M 6777,13523 L 6873,13427 6962,13517 6866,13613 6777,13523 Z M 6822,13523 L 6873,13473 6917,13517 6866,13567 6822,13523 Z"/></g><g style="stroke:none;fill:rgb(255,255,255)"><path d="M 6822,13523 L 6873,13473 6917,13517 6866,13567 6822,13523 Z"/></g></g></g><g style="stroke:rgb(0,0,0);fill:none"><path style="fill:none" d="M 8958,16227 L 8803,16197 8650,16165 8500,16131 8351,16097 8204,16061 8060,16023 7918,15984 7779,15944 7642,15902 7508,15859 7377,15815 7248,15769 7122,15723 7000,15675 6880,15625 6764,15575 6651,15524 6541,15471 6434,15418 6331,15363 6231,15307 6135,15251 6042,15194 5953,15135 5868,15076 5786,15016 5708,14955 5634,14894 5564,14832 5498,14769 5436,14705 5378,14641 5324,14577 5274,14512 5228,14446 5186,14380 5149,14314 5115,14247 5086,14180 5061,14113 5040,14045 5024,13978 5012,13910 5004,13842 5000,13774 5001,13706 5006,13638 5015,13570 5028,13502 5046,13435 5068,13367 5094,13300 5125,13233 5159,13166 5198,13100 5241,13034 5288,12969 5339,12904 5395,12840 5454,12776 5517,12712 5585,12650 5656,12588 5731,12527 5810,12466 5893,12406 5979,12347 6069,12289 6163,12232 6260,12176 6361,12121 6465,12066 6573,12013 6684,11961 6798,11910 6915,11860 7036,11811 7159,11764 7286,11717 7415,11672 7547,11628 7682,11585 7820,11544 7960,11504 8102,11466 8247,11429 8395,11393 8544,11359 8696,11326 8849,11294 9005,11264 9162,11236 9321,11209 9482,11184 9644,11160 9808,11138 9973,11118 10139,11099 10306,11082 10475,11066 10644,11052 10814,11040 10985,11029 11157,11020 11329,11013 11501,11007 11674,11003 11847,11001 12020,11000 12193,11001 12366,11004 12539,11008 12711,11014 12883,11022 13054,11031 13225,11042 13395,11055 13564,11070 13732,11086 13900,11103 14066,11122 14230,11143 14394,11166 14556,11190 14716,11215 14875,11243 15031,11271 15187,11301 15340,11333 15491,11366 15640,11401 15786,11437 15931,11474 16073,11513 16212,11554 16349,11595 16483,11638 16615,11682 16744,11728 16869,11774 16992,11822 17112,11871 17229,11922 17342,11973 17452,12025 17559,12079 17663,12133 17763,12189 17859,12245 17952,12303 18041,12361 18127,12420 18209,12480 18287,12541 18361,12602 18431,12664 18498,12727 18560,12790 18618,12854 18673,12919 18723,12984 18769,13050 18811,13115 18849,13182 18883,13249 18912,13316 18937,13383 18958,13450 18975,13518 18988,13586 18996,13654 19000,13722 18999,13790 18995,13858 18986,13925 18973,13993 18955,14061 18933,14128 18907,14196 18877,14263 18843,14329 18804,14395 18762,14461 18715,14527 18664,14592 18609,14656 18550,14720 18487,14783 18420,14846 18349,14908 18274,14969 18195,15030 18113,15090 18027,15149 17937,15207 17843,15264 17746,15320 17646,15376 17542,15430 17434,15483 17324,15536 17210,15587 17092,15637 16972,15686 16849,15733 16723,15780 16593,15825 16461,15869 16327,15912 16189,15953 16049,15993 15907,16032 15762,16069 15615,16105 15466,16139 15314,16172 15161,16204 15006,16234 14848,16262 14689,16289 14529,16314 14367,16338 14203,16360 14038,16381 13872,16400 13705,16417 13536,16433 13367,16447 13197,16460 13026,16470 12855,16479 12683,16487 12510,16493 12337,16497 12164,16499 11991,16500 11818,16499 11645,16496 11473,16492 11300,16486 6675,21167 8958,16227"/><path style="fill:none" d="M 5000,11000 L 5000,11000"/><path style="fill:none" d="M 19001,16501 L 19001,16501"/></g><g style="stroke:none;fill:none"><rect x="5000" y="11000" width="14001" height="5501"/></g><g/></g></g></g></svg>