<?xml version="1.0" encoding="utf-8"?>
<!-- Generator: Adobe Illustrator 15.0.2, SVG Export Plug-In . SVG Version: 6.00 Build 0)  -->
<!DOCTYPE svg PUBLIC "-//W3C//DTD SVG 1.1//EN" "http://www.w3.org/Graphics/SVG/1.1/DTD/svg11.dtd">
<svg version="1.1" id="Calque_1" xmlns="http://www.w3.org/2000/svg" xmlns:xlink="http://www.w3.org/1999/xlink" x="0px" y="0px"
	 width="612px" height="792px" viewBox="0 0 612 792" enable-background="new 0 0 612 792" xml:space="preserve">
<g id="XMLID_2_">
	<g>
		<path fill="#FFFFFF" d="M356.02,357c0,25.67,0,51.34,0,77.02c-33.34,0-66.68,0-100.02,0c0.67-25.34-1.33-53.35,1-77.02
			C290.01,357,323.02,357,356.02,357z M342.02,428.02c3.53-0.47,9.641,1.631,9-3c-5.149,2.511-2.46-3.199,0-4.01
			c-21.279-10.72-40.67-23.34-60.01-36c-1.19-4.33,0.71-12.49-4-11.01c0.91,0.28,3.36,3.73,1,4c-1.67-3.44-1.86-2.77-4,0
			c-1.3-2.9-0.97-6.76,3-7c-0.01,0.56,0.81,1.14,1,0c-5.91-2.41-3.07-5.51-12.01-7c1.13,3.15,0.09,2.27,0,6
			c1.33,1.01,3.73,0.95,4.01,3c-3.74-1.32-5.73,4.17-7.01,2c0-2,0-4,0-6c-4.22-0.68-5.64,2.05-7-1c-0.22,0.78-0.03,1.98-1,2
			c1.22-3.62,2.68-3.21,3-6c0.06,1.05,1.28,0.79,1-1c-19.96,8.9,3.26,36.76,19.01,25.01c0.17,1.16,1.58,1.08,3,1
			c0.09,2.64,5.38,5.19,7,3c-0.89-0.59-5.71-2.1-3-3c1.38,2.29,4.98,2.35,6,5c-1.28-0.06-1.39-1.28-3-1
			C310.51,404.06,328.07,415.44,342.02,428.02z"/>
		<path d="M351.02,425.02c0.641,4.631-5.47,2.53-9,3c-13.949-12.579-31.51-23.96-44.01-35.01c1.61-0.28,1.72,0.94,3,1
			c-1.02-2.65-4.62-2.71-6-5c-2.71,0.9,2.11,2.41,3,3c-1.62,2.19-6.91-0.36-7-3c-1.42,0.08-2.83,0.16-3-1
			C272.26,399.76,249.04,371.9,269,363c0.28,1.79-0.94,2.05-1,1c-0.32,2.79-1.78,2.38-3,6c0.97-0.02,0.78-1.22,1-2
			c1.36,3.05,2.78,0.32,7,1c0,2,0,4,0,6c1.28,2.17,3.27-3.32,7.01-2c-0.28-2.05-2.68-1.99-4.01-3c0.09-3.73,1.13-2.85,0-6
			c8.94,1.49,6.1,4.59,12.01,7c-0.19,1.14-1.01,0.56-1,0c-3.97,0.24-4.3,4.1-3,7c2.14-2.77,2.33-3.44,4,0c2.36-0.27-0.09-3.72-1-4
			c4.71-1.48,2.81,6.68,4,11.01c19.34,12.66,38.73,25.28,60.01,36C348.56,421.82,345.87,427.53,351.02,425.02z M289.01,381.01
			c-1.88-0.24,0.57-1.65-1-2.01c-1.22,1.45-4,1.34-4,4.01C285.79,382.45,288.16,382.49,289.01,381.01z"/>
		<path fill="#FFFFFF" d="M288.01,379c1.57,0.36-0.88,1.77,1,2.01c-0.85,1.48-3.22,1.44-5,2C284.01,380.34,286.79,380.45,288.01,379
			z"/>
	</g>
	<g>
	</g>
</g>
</svg>
