<?xml version="1.0" encoding="UTF-8" standalone="no"?>
<!-- Created with Inkscape (http://www.inkscape.org/) -->

<svg
   xmlns:dc="http://purl.org/dc/elements/1.1/"
   xmlns:cc="http://creativecommons.org/ns#"
   xmlns:rdf="http://www.w3.org/1999/02/22-rdf-syntax-ns#"
   xmlns:svg="http://www.w3.org/2000/svg"
   xmlns="http://www.w3.org/2000/svg"
   xmlns:xlink="http://www.w3.org/1999/xlink"
   xmlns:sodipodi="http://sodipodi.sourceforge.net/DTD/sodipodi-0.dtd"
   xmlns:inkscape="http://www.inkscape.org/namespaces/inkscape"
   width="265.26062"
   height="204.88354"
   id="svg2"
   version="1.1"
   inkscape:version="0.48.0 r9654"
   sodipodi:docname="wood_club.svg">
  <defs
     id="defs4">
    <linearGradient
       id="linearGradient3842">
      <stop
         style="stop-color:#8c6f41;stop-opacity:1;"
         offset="0"
         id="stop3844" />
      <stop
         style="stop-color:#69441f;stop-opacity:1;"
         offset="1"
         id="stop3846" />
    </linearGradient>
    <linearGradient
       id="linearGradient3834">
      <stop
         style="stop-color:#dabd86;stop-opacity:1;"
         offset="0"
         id="stop3836" />
      <stop
         style="stop-color:#d0985a;stop-opacity:1;"
         offset="1"
         id="stop3838" />
    </linearGradient>
    <radialGradient
       inkscape:collect="always"
       xlink:href="#linearGradient3834"
       id="radialGradient3840"
       cx="300.97992"
       cy="144.0825"
       fx="300.97992"
       fy="144.0825"
       r="43.560467"
       gradientTransform="matrix(0.92161707,0.02081887,-0.01771671,0.78428887,26.144352,25.035714)"
       gradientUnits="userSpaceOnUse" />
    <linearGradient
       inkscape:collect="always"
       xlink:href="#linearGradient3842"
       id="linearGradient3848"
       x1="229.17293"
       y1="217.08781"
       x2="259.39996"
       y2="254.31808"
       gradientUnits="userSpaceOnUse" />
    <linearGradient
       inkscape:collect="always"
       xlink:href="#linearGradient3842"
       id="linearGradient3859"
       gradientUnits="userSpaceOnUse"
       x1="229.17293"
       y1="217.08781"
       x2="259.39996"
       y2="254.31808" />
    <radialGradient
       inkscape:collect="always"
       xlink:href="#linearGradient3834"
       id="radialGradient3861"
       gradientUnits="userSpaceOnUse"
       gradientTransform="matrix(0.92161707,0.02081887,-0.01771671,0.78428887,26.144352,25.035714)"
       cx="300.97992"
       cy="144.0825"
       fx="300.97992"
       fy="144.0825"
       r="43.560467" />
  </defs>
  <sodipodi:namedview
     id="base"
     pagecolor="#ffffff"
     bordercolor="#666666"
     borderopacity="1.0"
     inkscape:pageopacity="0.0"
     inkscape:pageshadow="2"
     inkscape:zoom="1.0351066"
     inkscape:cx="132.64969"
     inkscape:cy="102.47248"
     inkscape:document-units="px"
     inkscape:current-layer="layer1"
     showgrid="false"
     inkscape:window-width="1440"
     inkscape:window-height="823"
     inkscape:window-x="0"
     inkscape:window-y="24"
     inkscape:window-maximized="1"
     fit-margin-top="0"
     fit-margin-left="0"
     fit-margin-right="0"
     fit-margin-bottom="0" />
  <metadata
     id="metadata7">
    <rdf:RDF>
      <cc:Work
         rdf:about="">
        <dc:format>image/svg+xml</dc:format>
        <dc:type
           rdf:resource="http://purl.org/dc/dcmitype/StillImage" />
        <dc:title></dc:title>
      </cc:Work>
    </rdf:RDF>
  </metadata>
  <g
     inkscape:label="Layer 1"
     inkscape:groupmode="layer"
     id="layer1"
     transform="translate(-86.748411,-120.09497)">
    <g
       id="g3850">
      <path
         inkscape:connector-curvature="0"
         id="path3036"
         d="m 269.90229,242.6553 c 1.94473,-0.76691 4.17464,0.20103 6.05451,-0.85341 1.51757,-0.58326 3.13345,-0.75417 4.70348,-1.06429 1.7255,0.0752 3.60074,-0.0384 4.91918,-1.30198 1.16384,-1.0106 2.99005,-1.00958 4.23625,-1.29294 0.77633,1.30073 -0.48306,2.86627 -0.62439,4.22642 -0.17116,1.51065 0.35538,3.89177 -1.83173,4.04453 -1.52359,0.40689 -3.28512,-0.36295 -4.58848,0.78679 -1.25696,0.97402 -2.55718,1.93163 -4.12559,2.33581 -1.45902,0.38783 -3.00903,0.47759 -4.50477,0.7726 -1.589,0.558 -3.34056,0.48654 -4.85908,1.28647 -1.877,0.66376 -3.73729,1.49263 -5.76474,1.52129 -1.19003,0.14593 -2.29446,0.77194 -3.54276,0.57998 -1.10063,-0.21345 -3.00085,0.47265 -3.51594,0.65675 l 0.0776,0.006 0.034,0.003"
         style="fill:#6b4e19;fill-opacity:1;stroke:#502e13;stroke-width:1px;stroke-linecap:butt;stroke-linejoin:miter;stroke-opacity:1" />
      <path
         sodipodi:nodetypes="cscccccccccccccccsc"
         inkscape:connector-curvature="0"
         id="path2985"
         d="m 330.62804,205.65066 c -1.52513,0.61786 -4.41541,1.7475 -5.89333,2.45495 -1.47792,0.70745 -2.93374,1.45613 -4.37049,2.23895 -8.65988,4.73714 -17.07566,10.98724 -24.45409,16.23977 -10.32523,6.3902 -22.56112,10.19919 -30.21016,20.18266 -6.99948,10.20757 -20.91247,9.71637 -30.30949,16.719 -10.699,7.13019 -22.23098,12.56471 -33.92777,17.80798 -10.37668,5.74445 -21.31926,10.15971 -32.23641,14.75821 -14.52369,6.10963 -48.25131,14.84292 -61.20815,26.37332 -11.194665,7.29011 -29.196292,-6.64138 -16.31716,-14.12392 l 22.01806,-12.21083 c 3.8336,-6.22778 9.0628,-5.28744 14.14258,-13.50231 10.81556,-6.71737 17.90921,-9.7596 24.44727,-20.7121 12.79691,-6.62808 13.80452,-17.08944 21.86046,-28.54997 8.19671,-8.01206 19.51246,-12.5173 26.22232,-22.15081 7.27605,-7.96128 14.64066,-14.3376 22.8507,-21.1353 8.40547,-7.62638 17.96481,-14.75527 21.71537,-25.95297 2.67271,-6.21644 6.1156,-12.07613 9.94914,-17.68556 1.91678,-2.80471 11.03698,-14.19734 13.10164,-16.89023"
         style="fill:url(#linearGradient3859);fill-opacity:1;stroke:#3b2b0a;stroke-width:1px;stroke-linecap:butt;stroke-linejoin:miter;stroke-opacity:1" />
      <path
         inkscape:connector-curvature="0"
         id="path2989"
         d="m 172.56667,256.32885 c 3.79602,-2.00454 5.0571,-6.84906 9.05801,-8.58108 1.94589,-2.50905 5.10555,-3.39011 7.60296,-5.13822 2.36898,-2.18948 5.17891,-3.76531 8.12889,-5.02637 2.81068,-1.3046 6.01167,-2.99967 6.774,-6.28061 0.69325,-3.00429 2.54724,-5.57742 4.99636,-7.40456 2.42057,-1.73676 3.79914,-4.55254 6.4566,-6.00312 2.67855,-1.65002 5.18423,-3.58176 7.54712,-5.6509 l 0.18652,-0.22801 0.14449,-0.22046"
         style="fill:none;stroke:#502e13;stroke-width:0.40000001;stroke-linecap:butt;stroke-linejoin:miter;stroke-miterlimit:4;stroke-opacity:1;stroke-dasharray:none" />
      <path
         inkscape:connector-curvature="0"
         id="path2991"
         d="m 234.59524,242.8098 c 4.53428,-2.91173 7.70141,-7.39013 11.77167,-10.84601 2.3254,-0.94227 2.81197,-4.11692 5.33076,-4.76229 2.95248,-1.40715 5.77281,-3.08286 8.71928,-4.49089 2.61943,-1.03836 5.18512,-2.20312 7.71317,-3.43923 2.48009,-0.94193 4.9144,-1.99559 7.33508,-3.07194 1.09462,-0.41063 2.3407,-0.88083 2.86808,-2.01821"
         style="fill:none;stroke:#502e13;stroke-width:0.40000001;stroke-linecap:butt;stroke-linejoin:miter;stroke-miterlimit:4;stroke-opacity:1;stroke-dasharray:none" />
      <path
         sodipodi:nodetypes="cccccccccccccccccc"
         inkscape:connector-curvature="0"
         d="m 327.06447,204.8362 c -3.43811,-2.18848 -8.19282,0.57403 -11.60636,-1.80661 -3.99819,1.75307 -5.35841,-3.43527 -9.08977,-2.5609 -2.25343,-1.6106 -7.02873,-0.33104 -9.23838,-3.32236 -1.70598,-2.68473 -2.46176,-5.37946 -2.02162,-8.56938 1.51074,-5.30992 -5.14698,-1.31094 -7.55671,-3.8517 -3.53356,-1.08343 -6.53487,-3.51174 -9.93806,-5.09233 2.1814,-0.24339 -0.90043,-1.00594 -0.5717,-1.90295 -1.95046,-3.05759 -4.79302,-5.72095 -5.3917,-9.50122 -2.08299,-2.93085 -1.15471,-6.38456 -1.76404,-9.7435 -0.34103,-3.39542 -2.25611,-6.34499 -0.88987,-9.68858 1.60976,-3.63008 -1.21103,-6.33017 -2.94251,-9.15098 -1.61273,-3.67192 0.54026,-6.73381 2.49913,-10.31811 14.92977,-11.26789 32.5376,-8.78386 49.90671,-7.80062 11.56726,0.40371 16.6549,11.56749 24.49195,17.8738 7.54701,9.84962 9.18782,23.00634 8.35096,35.08551 -0.70204,13.6833 -6.52,25.46753 -19.98852,30.88627 -2.16097,0.81459 -2.45337,-0.97179 -4.24951,-0.53634 z"
         style="fill:url(#radialGradient3861);fill-opacity:1;stroke:#5c4011;stroke-width:1;stroke-linecap:butt;stroke-linejoin:miter;stroke-miterlimit:4;stroke-opacity:1;stroke-dasharray:none"
         id="path2993" />
      <path
         sodipodi:nodetypes="cccccccccc"
         inkscape:connector-curvature="0"
         id="path2995"
         d="m 269.77789,174.24835 c -0.0805,0.77894 -4.30374,0.30921 -5.77146,2.21091 -2.31789,4.50479 -2.15334,0.37854 -3.73421,4.40385 -0.75985,1.92445 -0.39076,2.11315 0.0548,3.71088 0.0416,2.34779 -1.503,2.29616 -2.24968,4.31263 -1.2158,2.70378 -0.98055,5.93606 -2.81719,8.38438 -1.11815,1.95384 -2.63577,3.62836 -4.02439,5.37941 -1.67423,2.48009 -3.08711,5.27138 -5.56631,7.06802 -0.15076,1.89638 -1.42868,3.34197 -2.82282,4.20999 -0.23478,1.27598 -2.16839,0.82083 -1.88925,1.84329"
         style="fill:none;stroke:#502e13;stroke-width:0.40000001;stroke-linecap:butt;stroke-linejoin:miter;stroke-miterlimit:4;stroke-opacity:1;stroke-dasharray:none" />
      <path
         inkscape:connector-curvature="0"
         id="path2997"
         d="m 194.0381,275.41456 c -1.06032,0.79524 -2.12064,1.59048 -3.18096,2.38572 -1.88653,0.39632 -3.34512,1.79213 -5.15353,2.39347 -2.88035,1.35759 -5.95954,2.27588 -8.74056,3.84897 -1.02694,0.58702 -2.19459,0.83894 -3.18308,1.49993 -1.12942,0.53954 -2.19559,1.17934 -3.1877,1.94346 -1.2684,0.87935 -2.65171,1.6037 -4.09063,2.15729 l -0.14772,0.0449 -0.14916,0.0409"
         style="fill:none;stroke:#502e13;stroke-width:0.40000001;stroke-linecap:butt;stroke-linejoin:miter;stroke-miterlimit:4;stroke-opacity:1;stroke-dasharray:none" />
    </g>
  </g>
</svg>
