<?xml version="1.0" encoding="UTF-8" standalone="no"?>
<svg
   xmlns:ooo="http://xml.openoffice.org/svg/export"
   xmlns:dc="http://purl.org/dc/elements/1.1/"
   xmlns:cc="http://creativecommons.org/ns#"
   xmlns:rdf="http://www.w3.org/1999/02/22-rdf-syntax-ns#"
   xmlns:svg="http://www.w3.org/2000/svg"
   xmlns="http://www.w3.org/2000/svg"
   xmlns:sodipodi="http://sodipodi.sourceforge.net/DTD/sodipodi-0.dtd"
   xmlns:inkscape="http://www.inkscape.org/namespaces/inkscape"
   version="1.2"
   width="210mm"
   height="297mm"
   viewBox="0 0 21000 29700"
   preserveAspectRatio="xMidYMid"
   fill-rule="evenodd"
   clip-path="url(#presentation_clip_path)"
   stroke-width="28.222"
   stroke-linejoin="round"
   xml:space="preserve"
   id="svg3525"
   inkscape:version="0.48.4 r9939"
   sodipodi:docname="rame.png"><metadata
   id="metadata3631"><rdf:RDF><cc:Work
       rdf:about=""><dc:format>image/svg+xml</dc:format><dc:type
         rdf:resource="http://purl.org/dc/dcmitype/StillImage" /><dc:title></dc:title></cc:Work></rdf:RDF></metadata><sodipodi:namedview
   pagecolor="#ffffff"
   bordercolor="#666666"
   borderopacity="1"
   objecttolerance="10"
   gridtolerance="10"
   guidetolerance="10"
   inkscape:pageopacity="0"
   inkscape:pageshadow="2"
   inkscape:window-width="1680"
   inkscape:window-height="982"
   id="namedview3629"
   showgrid="false"
   inkscape:zoom="1"
   inkscape:cx="371.92997"
   inkscape:cy="606.01523"
   inkscape:window-x="-8"
   inkscape:window-y="-8"
   inkscape:window-maximized="1"
   inkscape:current-layer="svg3525" />
 <defs
   class="ClipPathGroup"
   id="defs3527">
  <clipPath
   id="presentation_clip_path"
   clipPathUnits="userSpaceOnUse">
   <rect
   x="0"
   y="0"
   width="21000"
   height="29700"
   id="rect3530" />
  </clipPath>
 </defs>
 <defs
   class="TextShapeIndex"
   id="defs3532">
  <g
   ooo:slide="id1"
   ooo:id-list="id3 id4 id5 id6 id7 id8"
   id="g3534" />
 </defs>
 <defs
   class="EmbeddedBulletChars"
   id="defs3536">
  <g
   id="bullet-char-template(57356)"
   transform="scale(0.00048828125,-0.00048828125)">
   <path
   d="M 580,1141 L 1163,571 580,0 -4,571 580,1141 Z"
   id="path3539" />
  </g>
  <g
   id="bullet-char-template(57354)"
   transform="scale(0.00048828125,-0.00048828125)">
   <path
   d="M 8,1128 L 1137,1128 1137,0 8,0 8,1128 Z"
   id="path3542" />
  </g>
  <g
   id="bullet-char-template(10146)"
   transform="scale(0.00048828125,-0.00048828125)">
   <path
   d="M 174,0 L 602,739 174,1481 1456,739 174,0 Z M 1358,739 L 309,1346 659,739 1358,739 Z"
   id="path3545" />
  </g>
  <g
   id="bullet-char-template(10132)"
   transform="scale(0.00048828125,-0.00048828125)">
   <path
   d="M 2015,739 L 1276,0 717,0 1260,543 174,543 174,936 1260,936 717,1481 1274,1481 2015,739 Z"
   id="path3548" />
  </g>
  <g
   id="bullet-char-template(10007)"
   transform="scale(0.00048828125,-0.00048828125)">
   <path
   d="M 0,-2 C -7,14 -16,27 -25,37 L 356,567 C 262,823 215,952 215,954 215,979 228,992 255,992 264,992 276,990 289,987 310,991 331,999 354,1012 L 381,999 492,748 772,1049 836,1024 860,1049 C 881,1039 901,1025 922,1006 886,937 835,863 770,784 769,783 710,716 594,584 L 774,223 C 774,196 753,168 711,139 L 727,119 C 717,90 699,76 672,76 641,76 570,178 457,381 L 164,-76 C 142,-110 111,-127 72,-127 30,-127 9,-110 8,-76 1,-67 -2,-52 -2,-32 -2,-23 -1,-13 0,-2 Z"
   id="path3551" />
  </g>
  <g
   id="bullet-char-template(10004)"
   transform="scale(0.00048828125,-0.00048828125)">
   <path
   d="M 285,-33 C 182,-33 111,30 74,156 52,228 41,333 41,471 41,549 55,616 82,672 116,743 169,778 240,778 293,778 328,747 346,684 L 369,508 C 377,444 397,411 428,410 L 1163,1116 C 1174,1127 1196,1133 1229,1133 1271,1133 1292,1118 1292,1087 L 1292,965 C 1292,929 1282,901 1262,881 L 442,47 C 390,-6 338,-33 285,-33 Z"
   id="path3554" />
  </g>
  <g
   id="bullet-char-template(9679)"
   transform="scale(0.00048828125,-0.00048828125)">
   <path
   d="M 813,0 C 632,0 489,54 383,161 276,268 223,411 223,592 223,773 276,916 383,1023 489,1130 632,1184 813,1184 992,1184 1136,1130 1245,1023 1353,916 1407,772 1407,592 1407,412 1353,268 1245,161 1136,54 992,0 813,0 Z"
   id="path3557" />
  </g>
  <g
   id="bullet-char-template(8226)"
   transform="scale(0.00048828125,-0.00048828125)">
   <path
   d="M 346,457 C 273,457 209,483 155,535 101,586 74,649 74,723 74,796 101,859 155,911 209,963 273,989 346,989 419,989 480,963 531,910 582,859 608,796 608,723 608,648 583,586 532,535 482,483 420,457 346,457 Z"
   id="path3560" />
  </g>
  <g
   id="bullet-char-template(8211)"
   transform="scale(0.00048828125,-0.00048828125)">
   <path
   d="M -4,459 L 1135,459 1135,606 -4,606 -4,459 Z"
   id="path3563" />
  </g>
 </defs>
 <defs
   class="TextEmbeddedBitmaps"
   id="defs3565" />
 <g
   id="g3567">
  <g
   id="id2"
   class="Master_Slide">
   <g
   id="bg-id2"
   class="Background" />
   <g
   id="bo-id2"
   class="BackgroundObjects" />
  </g>
 </g>
 <g
   class="SlideGroup"
   id="g3572"
   transform="matrix(-1.1907117,0,0,1.1566091,26195.183,-2365.0557)"
   inkscape:export-xdpi="89.927834"
   inkscape:export-ydpi="89.927834"
   inkscape:export-filename="C:\www\SNN\rame.png">
  <g
   id="g3574">
   <g
   id="id1"
   class="Slide"
   clip-path="url(#presentation_clip_path)">
    <g
   class="Page"
   id="g3577">
     <g
   class="Group"
   id="g3579">
      <g
   class="com.sun.star.drawing.LineShape"
   id="g3581">
       <g
   id="id3">
        <path
   d="M 6356,25309 13462,8228"
   id="path3584"
   inkscape:connector-curvature="0"
   style="fill:none;stroke:#3465af;stroke-width:200" />
       </g>
      </g>
      <g
   class="com.sun.star.drawing.CustomShape"
   id="g3586">
       <g
   id="id4">
        <path
   d="m 6417,25335 c 16,6 36,-3 43,-18 l 167,-401 c 6,-16 -2,-37 -18,-44 l -123,-51 c -15,-7 -37,3 -44,18 l -167,401 c -6,16 3,37 18,43 l 124,52 z m 30,12 0,0 z m 7,-540 0,0 z"
   id="path3589"
   inkscape:connector-curvature="0"
   style="fill:#23ff23;stroke:none" />
        <path
   d="m 6417,25335 c 16,6 36,-3 43,-18 l 167,-401 c 6,-16 -2,-37 -18,-44 l -123,-51 c -15,-7 -37,3 -44,18 l -167,401 c -6,16 3,37 18,43 l 124,52 z"
   id="path3591"
   inkscape:connector-curvature="0"
   style="fill:none;stroke:#3465af" />
        <path
   d="m 6447,25347 0,0 z"
   id="path3593"
   inkscape:connector-curvature="0"
   style="fill:none;stroke:#3465af" />
        <path
   d="m 6454,24807 0,0 z"
   id="path3595"
   inkscape:connector-curvature="0"
   style="fill:none;stroke:#3465af" />
       </g>
      </g>
      <g
   class="com.sun.star.drawing.CustomShape"
   id="g3597">
       <g
   id="id5">
        <path
   d="m 8555,20072 -306,-127 71,-170 611,254 -70,170 -306,-127 z"
   id="path3600"
   inkscape:connector-curvature="0"
   style="fill:#004a4a;stroke:none" />
        <path
   d="m 8555,20072 -306,-127 71,-170 611,254 -70,170 -306,-127 z"
   id="path3602"
   inkscape:connector-curvature="0"
   style="fill:none;stroke:#3465af" />
       </g>
      </g>
      <g
   class="com.sun.star.drawing.ClosedBezierShape"
   id="g3604">
       <g
   id="id6">
        <path
   d="m 13284,8112 c 292,-1117 410,-3158 877,-3351 451,94 902,187 1354,280 16,127 31,254 48,381 -388,1180 -244,956 -988,2684 -537,-197 -704,17 -971,163 l -320,-157 z"
   id="path3607"
   inkscape:connector-curvature="0"
   style="fill:#000080;stroke:none" />
        <path
   d="m 13284,8112 c 292,-1117 410,-3158 877,-3351 451,94 902,187 1354,280 16,127 31,254 48,381 -388,1180 -244,956 -988,2684 -537,-197 -704,17 -971,163 l -320,-157 z"
   id="path3609"
   inkscape:connector-curvature="0"
   style="fill:none;stroke:#3465af" />
       </g>
      </g>
      <g
   class="com.sun.star.drawing.PolyPolygonShape"
   id="g3611">
       <g
   id="id7">
        <path
   d="m 14099,4788 1394,244 -7,-106 -1261,-318 -126,180 z"
   id="path3614"
   inkscape:connector-curvature="0"
   style="fill:#000000;stroke:none" />
        <path
   d="m 14099,4788 1394,244 -7,-106 -1261,-318 -126,180 z"
   id="path3616"
   inkscape:connector-curvature="0"
   style="fill:none;stroke:#3465af" />
       </g>
      </g>
      <g
   class="com.sun.star.drawing.CustomShape"
   id="g3618">
       <g
   id="id8">
        <path
   d="m 13799,6033 484,48 179,-430 122,460 481,46 -404,235 118,452 -372,-308 -413,238 179,-431 -374,-310 0,0 z m 233,-561 0,0 z m 656,1591 0,0 z"
   id="path3621"
   inkscape:connector-curvature="0"
   style="fill:#ffffff;stroke:none" />
        <path
   d="m 13799,6033 484,48 179,-430 122,460 481,46 -404,235 118,452 -372,-308 -413,238 179,-431 -374,-310 0,0 z"
   id="path3623"
   inkscape:connector-curvature="0"
   style="fill:none;stroke:#000080" />
        <path
   d="m 14032,5472 0,0 z"
   id="path3625"
   inkscape:connector-curvature="0"
   style="fill:none;stroke:#000080" />
        <path
   d="m 14688,7063 0,0 z"
   id="path3627"
   inkscape:connector-curvature="0"
   style="fill:none;stroke:#000080" />
       </g>
      </g>
     </g>
    </g>
   </g>
  </g>
 </g>
</svg>